<svg xmlns="http://www.w3.org/2000/svg" xml:space="preserve" width="200" height="150" data-id="lg_aSEQdZGnGOnbcSMBWx" data-version="1" viewBox="0 0 2000 1500"><path fill="#fff" stroke="transparent" d="M0 0h2000v1500H0z"/><g data-padding="20"><g transform="translate(-1320.313 -987.795)scale(2.26034)"><rect width="585.577" height="179.67" x="484.348" y="461.221" fill="none" rx="0" ry="0" transform="matrix(.96 0 0 .96 280.48 393.47)"/><path fill="#111" d="m800.442 868.353 31.4 76.41-6.16 2.89 31.55-78.92q1.14-2.96 2.74-4.18t4.41-1.22h18.09q1.9 0 2.89.73.99.72.99 2.01 0 1.06-.68 1.83-.69.76-2.28 1.14l-4.41 1.14q-2.74.68-3.69 2.05t-.72 4.64l6.23 80.97q.15 2.5 1.14 3.53t3.5 1.64l4.18 1.06q1.6.38 2.24 1.1.65.72.65 1.71 0 1.3-.95 2.09-.95.8-2.85.8h-33.61q-1.97 0-2.92-.76t-.95-1.97q0-1.07.64-1.79.65-.72 2.32-1.18l4.26-1.06q2.89-.76 3.88-1.87.98-1.1.83-3.3l-6.61-82.11 5.78-.31-33.38 84.16q-1.07 2.74-2.17 3.58-1.1.83-2.54.83-1.07 0-1.94-.3-.88-.3-1.64-1.29t-1.59-2.97l-33.76-82.03 5.55-2.89-7 81.27q-.3 3.12 1.22 4.64t4.41 2.59l4.56 1.29q1.14.45 1.83 1.02.68.57.68 1.64 0 1.22-.95 2.01-.95.8-2.85.8h-24.94q-1.9 0-2.85-.76t-.95-1.97q0-1.3.84-1.94.83-.65 2.28-1.18l3.8-1.14q2.74-.76 4.14-2.36 1.41-1.6 1.64-4.64l6.92-78.69q.22-3.04-.88-4.67-1.1-1.64-3.84-2.24l-4.1-.92q-1.67-.45-2.44-1.17-.76-.73-.76-1.94 0-2.82 3.96-2.82h17.79q2.66 0 4.26.99 1.59.99 2.81 4.03m133.96 97.62q5.7 0 8.97-2.96 3.27-2.97 3.27-7.68 0-2.97-1.37-5.29t-4.98-4.25q-3.61-1.94-10.3-3.69-10.49-2.36-16.42-5.89-5.93-3.54-8.37-8.06-2.43-4.53-2.43-9.92 0-9.66 6.92-15.51 6.92-5.86 19.84-5.86 4.79 0 7.87.8t5.13 1.67q2.06.88 3.65.88 1.52 0 2.32-.88.8-.87 1.56-1.71.76-.83 2.13-.83.91 0 1.63.6.73.61 1.26 2.28l5.55 16.05q.76 2.05.49 3.42-.26 1.37-1.71 1.97-1.44.54-2.47-.03-1.02-.57-1.94-2.02-3.34-6.31-7.3-9.92-3.95-3.61-8.32-5.13t-9.09-1.52q-7.14 0-10.75 3-3.62 3-3.62 8.1 0 2.96 1.53 5.43 1.52 2.47 5.55 4.57 4.02 2.09 11.48 3.99 9.27 2.2 14.74 5.43 5.48 3.23 7.87 7.68 2.4 4.45 2.4 10.38 0 6.01-3 10.64-3.01 4.64-8.52 7.26-5.51 2.63-12.89 2.63-4.63 0-7.52-.99t-4.83-1.94-3.69-.95q-1.52 0-2.43.95t-1.71 1.94-2.02.99q-.91 0-1.52-.65t-.91-2.17l-3.27-15.2q-.53-2.66-.3-3.96.23-1.29 1.52-1.74 1.37-.54 2.39.19 1.03.72 2.17 2.54 4.33 8.21 9.92 11.79 5.59 3.57 11.52 3.57m95.03-3.8v-4.79l-.38-.53v-84.55q0-1.67-.57-2.47-.57-.79-1.94-.87l-5.09-.23q-1.37-.23-1.9-.76t-.53-1.44q0-.99.64-1.6.65-.61 2.32-1.22l12.62-4.48q2.36-.84 3.88-1.22t2.74-.38q1.9 0 2.85 1.07.95 1.06.95 2.88v97.78q0 2.05.76 3.08.76 1.02 2.28 1.4l3.42.76q1.37.38 2.02 1.03.64.64.64 1.63 0 1.14-.83 1.83-.84.68-2.59.68h-13.68q-3.5 0-5.55-1.97-2.06-1.98-2.06-5.63m-55.72-26.38q0-12.01 4.71-20.76 4.71-8.74 12.73-13.49 8.03-4.75 17.91-4.75 9.05 0 16.12 4.44 7.07 4.45 11.4 12.66l-3.72 3.8q-3.88-6.84-9.39-10.41-5.52-3.58-11.75-3.58-6.01 0-10.83 3.31-4.83 3.31-7.61 10.04-2.77 6.73-2.77 16.91 0 9.66 2.66 16.16t7.34 9.77q4.67 3.27 10.6 3.27 6.16 0 11.63-3.58 5.48-3.57 9.96-10.64l2.51 3.95q-5.85 8.82-13.57 13.73-7.72 4.9-16.84 4.9-8.97 0-16-4.56-7.04-4.56-11.06-12.62-4.03-8.06-4.03-18.55m158.75-10.42q0 3.42-2.05 5.29-2.05 1.86-6.01 1.86h-48.58v-4.87h36.49q3.81 0 3.81-3.34 0-10.19-4.41-15.85-4.41-5.67-11.79-5.67-5.78 0-10.15 3.27t-6.88 9.31q-2.51 6.05-2.51 14.26 0 15.13 7.26 22.96t18.97 7.83q7.53 0 13.08-3.42t7.83-9.05q.99-1.21 1.63-1.71.65-.49 1.41-.49.99 0 1.48.91.5.91.42 2.13-.45 6.23-4.52 11.4t-10.84 8.25q-6.76 3.08-15.43 3.08-10.64 0-18.82-4.48-8.17-4.49-12.69-12.59-4.53-8.09-4.53-19.04 0-11.1 4.41-19.81 4.41-8.7 12.59-13.76 8.17-5.05 19.42-5.05 9.35 0 16.16 3.65 6.8 3.64 10.53 10.07 3.72 6.42 3.72 14.86m50.4 45.31h-5.4q-1.98 0-3.31-1.02-1.33-1.03-2.16-3l-22.96-57.25q-1.22-2.97-2.1-4-.87-1.02-2.09-1.25l-2.89-.61q-1.44-.38-1.97-1.02-.53-.65-.53-1.64 0-1.22.87-1.86.87-.65 2.4-.65h30.63q3.35 0 3.35 2.51 0 .99-.61 1.64-.61.64-2.2.95l-3.2.53q-3.72.68-4.41 2.39-.68 1.71.99 6.12l19.31 49.57-3.49 1.83 19.84-51.4q1.67-4.41.99-6.12-.69-1.71-4.41-2.39l-3.2-.53q-1.52-.31-2.16-.95-.65-.65-.65-1.64 0-1.22.88-1.86.87-.65 2.47-.65h21.13q1.52 0 2.44.65.91.64.91 1.86 0 .91-.57 1.6-.57.68-2.17.99l-2.81.53q-1.45.3-2.59 1.86t-2.66 5.59l-22.35 55.5q-.84 2.2-2.21 2.96-1.36.76-3.11.76m77.02-4.71q5.71 0 8.97-2.96 3.27-2.97 3.27-7.68 0-2.97-1.36-5.29-1.37-2.32-4.98-4.25-3.62-1.94-10.31-3.69-10.49-2.36-16.42-5.89-5.93-3.54-8.36-8.06-2.43-4.53-2.43-9.92 0-9.66 6.91-15.51 6.92-5.86 19.85-5.86 4.79 0 7.87.8t5.13 1.67q2.05.88 3.65.88 1.52 0 2.32-.88.79-.87 1.56-1.71.76-.83 2.12-.83.92 0 1.64.6.72.61 1.25 2.28l5.55 16.05q.76 2.05.5 3.42-.27 1.37-1.71 1.97-1.45.54-2.47-.03-1.03-.57-1.94-2.02-3.35-6.31-7.3-9.92-3.96-3.61-8.33-5.13t-9.08-1.52q-7.15 0-10.76 3t-3.61 8.1q0 2.96 1.52 5.43t5.55 4.57q4.03 2.09 11.48 3.99 9.27 2.2 14.75 5.43 5.47 3.23 7.87 7.68 2.39 4.45 2.39 10.38 0 6.01-3 10.64-3 4.64-8.52 7.26-5.51 2.63-12.88 2.63-4.64 0-7.53-.99t-4.83-1.94-3.68-.95q-1.52 0-2.44.95-.91.95-1.71 1.94t-2.01.99q-.91 0-1.52-.65t-.92-2.17l-3.26-15.2q-.54-2.66-.31-3.96.23-1.29 1.52-1.74 1.37-.54 2.4.19 1.02.72 2.16 2.54 4.34 8.21 9.93 11.79 5.58 3.57 11.51 3.57m-54.01-169.86h-359.2l179.6-267.2Z"/><path fill="#c4ad27" d="M952.625 804.918h146.795c7.48 0 13.464-5.984 13.464-13.464V677.571c0-7.48-5.984-13.464-13.464-13.464H952.625a13.41 13.41 0 0 0-13.464 13.464v113.883c.187 7.48 6.17 13.464 13.464 13.464m146.982-9.35H952.625c-2.244 0-4.114-1.87-4.114-4.114V706.37h155.023v85.085c0 2.431-1.683 4.114-3.927 4.114M952.625 673.644h146.795c2.244 0 4.114 1.87 4.114 4.114v19.448H948.698v-19.635c0-2.244 1.683-3.927 3.927-3.927m20.944 11.594c0-3.179 2.618-5.61 5.61-5.61s5.61 2.618 5.61 5.61c0 3.18-2.618 5.61-5.61 5.61s-5.61-2.43-5.61-5.61m18.7 0c0-3.179 2.618-5.61 5.61-5.61s5.61 2.618 5.61 5.61c0 3.18-2.618 5.61-5.61 5.61s-5.61-2.43-5.61-5.61m-37.4 0a5.61 5.61 0 1 1 5.61 5.61c-2.992.187-5.61-2.43-5.61-5.61m137.445 95.557c0 2.618-2.057 4.675-4.675 4.675H964.593c-2.618 0-4.675-2.057-4.675-4.675s2.057-4.675 4.675-4.675h123.046c2.618 0 4.675 2.244 4.675 4.675m0-19.635c0 2.618-2.057 4.675-4.675 4.675h-90.695c-2.618 0-4.675-2.057-4.675-4.675s2.057-4.675 4.675-4.675h90.695c2.618 0 4.675 2.057 4.675 4.675m0-19.635c0 2.618-2.057 4.675-4.675 4.675H964.593c-2.618 0-4.675-2.057-4.675-4.675s2.057-4.675 4.675-4.675h123.046c2.618 0 4.675 2.057 4.675 4.675m0-19.822c0 2.618-2.057 4.675-4.675 4.675h-61.523c-2.618 0-4.675-2.057-4.675-4.675s2.057-4.675 4.675-4.675h61.523c2.618 0 4.675 2.057 4.675 4.675"/></g><path fill="transparent" stroke="transparent" stroke-width="2.344" d="M341.406 187.5h1317.188v1125H341.406z"/></g></svg>